<?xml version="1.0" encoding="UTF-8"?>
<svg width="10px" height="10px" viewBox="0 0 10 10" version="1.1" xmlns="http://www.w3.org/2000/svg" xmlns:xlink="http://www.w3.org/1999/xlink">
    <title>x</title>
    <g id="Auto-play" stroke="none" stroke-width="1" fill="none" fill-rule="evenodd">
        <g id="Auto-play-2.11" transform="translate(-745.000000, -115.000000)" fill="#FFFFFF" fill-rule="nonzero">
            <g id="full-options" transform="translate(450.000000, 57.000000)">
                <g id="close" transform="translate(290.000000, 53.000000)">
                    <path d="M14.8171153,5.18286371 C14.5732689,4.93904543 14.1821946,4.93904543 13.9383483,5.18286371 L10,9.12075906 L6.06165171,5.18286371 C5.81780538,4.93904543 5.42673108,4.93904543 5.18288475,5.18286371 C4.93903842,5.426682 4.93903842,5.81771133 5.18288475,6.06152961 L9.12123303,9.99942496 L5.18288475,13.9373203 C4.93903842,14.1811386 4.93903842,14.5721679 5.18288475,14.8159862 C5.30250748,14.9355952 5.46353807,15 5.61996779,15 C5.77639752,15 5.93742811,14.9401955 6.05705084,14.8159862 L9.99539913,10.8780909 L13.9337474,14.8159862 C14.0533701,14.9355952 14.2144007,15 14.3708305,15 C14.5318611,15 14.6882908,14.9401955 14.8079135,14.8159862 C15.0517598,14.5721679 15.0517598,14.1811386 14.8079135,13.9373203 L10.878767,9.99942496 L14.8171153,6.06152961 C15.0609616,5.81771133 15.0609616,5.426682 14.8171153,5.18286371 Z" id="x"></path>
                </g>
            </g>
        </g>
    </g>
</svg>